<mxfile host="65bd71144e">
    <diagram id="ATAK45cCktOCZp76CMKt" name="Page-1">
        <mxGraphModel dx="992" dy="409" grid="1" gridSize="10" guides="1" tooltips="1" connect="1" arrows="1" fold="1" page="1" pageScale="1" pageWidth="827" pageHeight="1169" math="0" shadow="0">
            <root>
                <mxCell id="0"/>
                <mxCell id="1" parent="0"/>
                <mxCell id="6" value="" style="edgeStyle=none;html=1;fontSize=20;" parent="1" source="3" target="5" edge="1">
                    <mxGeometry relative="1" as="geometry"/>
                </mxCell>
                <mxCell id="3" value="&lt;font style=&quot;font-size: 20px;&quot;&gt;&lt;b&gt;App&lt;/b&gt;&lt;/font&gt;" style="rounded=1;whiteSpace=wrap;html=1;fillColor=#d80073;fontColor=#ffffff;strokeColor=#A50040;" parent="1" vertex="1">
                    <mxGeometry x="294" y="80" width="120" height="60" as="geometry"/>
                </mxCell>
                <mxCell id="8" value="" style="edgeStyle=none;html=1;fontSize=20;" parent="1" source="5" target="7" edge="1">
                    <mxGeometry relative="1" as="geometry"/>
                </mxCell>
                <mxCell id="5" value="&lt;font style=&quot;font-size: 20px;&quot;&gt;&lt;b&gt;TaskItem&lt;/b&gt;&lt;/font&gt;" style="rounded=1;whiteSpace=wrap;html=1;fillColor=#d80073;fontColor=#ffffff;strokeColor=#A50040;" parent="1" vertex="1">
                    <mxGeometry x="294" y="200" width="120" height="60" as="geometry"/>
                </mxCell>
                <mxCell id="7" value="&lt;span style=&quot;font-size: 20px;&quot;&gt;&lt;b&gt;TaskDate&lt;/b&gt;&lt;/span&gt;" style="rounded=1;whiteSpace=wrap;html=1;fillColor=#d80073;fontColor=#ffffff;strokeColor=#A50040;" parent="1" vertex="1">
                    <mxGeometry x="294" y="310" width="120" height="60" as="geometry"/>
                </mxCell>
            </root>
        </mxGraphModel>
    </diagram>
    <diagram id="oHLgYoS5SrVdwMnYNqne" name="Page-2">
        <mxGraphModel dx="992" dy="409" grid="1" gridSize="10" guides="1" tooltips="1" connect="1" arrows="1" fold="1" page="1" pageScale="1" pageWidth="827" pageHeight="1169" math="0" shadow="0">
            <root>
                <mxCell id="0"/>
                <mxCell id="1" parent="0"/>
                <mxCell id="RlAa0Cq-GaBXchexa_rq-1" value="&lt;b&gt;&lt;font style=&quot;font-size: 24px;&quot;&gt;Concepts&lt;/font&gt;&lt;/b&gt;" style="text;strokeColor=none;align=center;fillColor=none;html=1;verticalAlign=middle;whiteSpace=wrap;rounded=0;" parent="1" vertex="1">
                    <mxGeometry x="50" y="30" width="710" height="30" as="geometry"/>
                </mxCell>
                <mxCell id="RlAa0Cq-GaBXchexa_rq-2" value="&lt;div style=&quot;text-align: left;&quot;&gt;&lt;span style=&quot;font-size: 18px; background-color: initial;&quot;&gt;Props is the short form for properties in ReactJS, and it is used to pass data from one component to another&amp;nbsp;&lt;/span&gt;&lt;/div&gt;" style="text;strokeColor=none;align=center;fillColor=none;html=1;verticalAlign=middle;whiteSpace=wrap;rounded=0;fontSize=24;" parent="1" vertex="1">
                    <mxGeometry x="70" y="90" width="720" height="70" as="geometry"/>
                </mxCell>
                <mxCell id="RlAa0Cq-GaBXchexa_rq-3" value="&lt;span style=&quot;font-size: 18px;&quot;&gt;Props are represented as JavaScript Objects. Theses objects contain key-value pairs,&lt;br&gt;&lt;div style=&quot;text-align: left;&quot;&gt;where the keys are the names of props&amp;nbsp;&lt;/div&gt;&lt;br&gt;&lt;/span&gt;" style="text;strokeColor=none;align=center;fillColor=none;html=1;verticalAlign=middle;whiteSpace=wrap;rounded=0;fontSize=24;" parent="1" vertex="1">
                    <mxGeometry x="54" y="180" width="720" height="70" as="geometry"/>
                </mxCell>
                <mxCell id="RlAa0Cq-GaBXchexa_rq-4" value="&lt;span style=&quot;font-size: 18px;&quot;&gt;Props are way to make components more dynamic and reusable by allowing you to&amp;nbsp;&lt;br&gt;&lt;div style=&quot;text-align: left;&quot;&gt;&lt;span style=&quot;background-color: initial;&quot;&gt;provide values or configuration to a component when it is created&amp;nbsp;&lt;/span&gt;&lt;/div&gt;&lt;/span&gt;" style="text;strokeColor=none;align=center;fillColor=none;html=1;verticalAlign=middle;whiteSpace=wrap;rounded=0;fontSize=24;" parent="1" vertex="1">
                    <mxGeometry x="45" y="250" width="720" height="70" as="geometry"/>
                </mxCell>
                <mxCell id="RlAa0Cq-GaBXchexa_rq-5" value="&lt;span style=&quot;font-size: 18px;&quot;&gt;Props are the components argument&amp;nbsp;&lt;/span&gt;" style="text;strokeColor=none;align=center;fillColor=none;html=1;verticalAlign=middle;whiteSpace=wrap;rounded=0;fontSize=24;" parent="1" vertex="1">
                    <mxGeometry x="54" y="340" width="720" height="70" as="geometry"/>
                </mxCell>
                <mxCell id="LqmxEtXxf6HTdMvVMQVA-1" value="&lt;span style=&quot;font-size: 18px;&quot;&gt;In react you can send props from parent component to child component but not&lt;br&gt;&lt;div style=&quot;text-align: left;&quot;&gt;&lt;span style=&quot;background-color: initial;&quot;&gt;vice versa&amp;nbsp;&lt;/span&gt;&lt;/div&gt;&lt;br&gt;&lt;/span&gt;" style="text;strokeColor=none;align=center;fillColor=none;html=1;verticalAlign=middle;whiteSpace=wrap;rounded=0;fontSize=24;" vertex="1" parent="1">
                    <mxGeometry x="45" y="430" width="720" height="70" as="geometry"/>
                </mxCell>
            </root>
        </mxGraphModel>
    </diagram>
</mxfile>